<svg xmlns="http://www.w3.org/2000/svg" width="75.931" height="73.481" viewBox="0 0 75.931 73.481"><defs><style>.a{fill:#313131;}</style></defs><g transform="translate(0 0)"><path class="a" d="M22.046,290.164a14.972,14.972,0,0,0-14.7,0,14.7,14.7,0,1,0,14.7,0Zm-.2,22.661-1.185-2.055L18.534,312l1.183,2.051a12.277,12.277,0,0,1-3.8.99v-2.343H13.472v2.342a12.227,12.227,0,0,1-3.8-.99l1.183-2.051-2.122-1.225-1.185,2.055a12.139,12.139,0,0,1-2.785-2.785l2.055-1.185L5.6,306.732l-2.055,1.186a12.179,12.179,0,0,1-1.013-3.8H4.9v-2.449H2.529a12.179,12.179,0,0,1,1.013-3.8L5.6,299.058l1.225-2.122-2.055-1.185a12.162,12.162,0,0,1,2.785-2.785l1.185,2.055,2.122-1.225-1.186-2.055a12.2,12.2,0,0,1,3.8-1.013v2.37h2.449v-2.37a12.18,12.18,0,0,1,3.8,1.013L18.534,293.8l2.122,1.225,1.185-2.055a12.139,12.139,0,0,1,2.785,2.785l-2.055,1.185,1.225,2.122,2.055-1.186a12.186,12.186,0,0,1,1.013,3.8h-2.37v2.449h2.37a12.179,12.179,0,0,1-1.013,3.8L23.8,306.733l-1.225,2.122,2.055,1.185A12.139,12.139,0,0,1,21.841,312.825Zm0,0" transform="translate(0 -244.111)"/><path class="a" d="M62.123,344a6.123,6.123,0,1,0,6.123,6.123A6.131,6.131,0,0,0,62.123,344Zm0,9.8a3.674,3.674,0,1,1,3.674-3.674A3.679,3.679,0,0,1,62.123,353.8Zm0,0" transform="translate(-47.427 -291.339)"/><path class="a" d="M88,376h2.449v2.449H88Zm0,0" transform="translate(-74.528 -318.44)"/><path class="a" d="M75.888,36.63c-.028-.284-.072-.569-.129-.853L73.433,24.131a8.7,8.7,0,0,0-5.924-6.561,7.322,7.322,0,0,0,2.3-5.324v-4.9a7.348,7.348,0,1,0-14.7,0H51.437V9.8h3.674v2.449a7.354,7.354,0,0,0,4.841,6.9L48.862,30.236l-11.2-1.79-4.263-9.6,6-9.691A14.067,14.067,0,0,1,51.437,2.449V0a16.5,16.5,0,0,0-14.12,7.867L26.668,25.062,8.573,7.92A10.373,10.373,0,0,0,1.225,4.9H0V49.411l2.122-2.284A16.985,16.985,0,0,1,14.7,41.639,17.109,17.109,0,0,1,31.272,54.39a16.966,16.966,0,0,1,.57,4.4v3.674H58.517l-.781,3.917a.312.312,0,0,1-.159.216l-3.4,1.7a2.714,2.714,0,0,0-1.511,2.442,2.747,2.747,0,0,0,2.744,2.744H73.482a2.452,2.452,0,0,0,2.449-2.449V37.475a8.2,8.2,0,0,0-.043-.845ZM60.526,64.908l.539-2.7a2.471,2.471,0,0,0,1.4-2.237l-.367-12.235a3.663,3.663,0,0,0-2.082-3.322v-2.8a35.691,35.691,0,0,0,4.067-.366A101.207,101.207,0,0,1,66.133,61.5v3.4Zm5.961-24.1a36.161,36.161,0,0,0,6.88-2.159l.115-.049v26.31h-4.9V61.5a103.436,103.436,0,0,0-2.1-20.7Zm4.546-16.194,2.277,11.4L72.4,36.4a33.779,33.779,0,0,1-7.577,2.248,33.122,33.122,0,0,1-5.073.5A11.132,11.132,0,0,0,59.2,37.31a10.516,10.516,0,0,0-1.516-2.638l9.521-9.521a4.717,4.717,0,0,0,1.377-3.315,4.665,4.665,0,0,0-.151-1.121,6.22,6.22,0,0,1,2.6,3.9ZM57.561,41.419v2.426l-11.022-2V39.19h10.72a8.511,8.511,0,0,1,.261,1.373,7.592,7.592,0,0,1,.042.856ZM64.539,19.7a2.162,2.162,0,0,1,.936.557,2.222,2.222,0,0,1,.658,1.583,2.259,2.259,0,0,1-.658,1.583l-9.512,9.512a10.826,10.826,0,0,0-4.19-2.144L62.31,20.252a2.184,2.184,0,0,1,2.229-.556ZM62.459,2.449a4.88,4.88,0,0,1,4.9,4.9h-9.8a4.9,4.9,0,0,1,4.9-4.9Zm-4.9,9.8V9.8h9.8v2.449a4.9,4.9,0,1,1-9.8,0ZM31.835,21.371l2.939,6.614-6.04-.966-.25-.236ZM6.885,9.695,25.1,26.943H21.229l-4.5-3.377L4.749,11.589a6.144,6.144,0,0,0-2.3-1.441V7.439A8.13,8.13,0,0,1,6.885,9.695ZM4.9,25.106a4.272,4.272,0,0,0,.05.612H2.45V12.866a3.732,3.732,0,0,1,.567.453l7.5,7.5H9.185A4.291,4.291,0,0,0,4.9,25.106Zm4.286-1.837h3.779l2.091,2.091,2.1,1.583H9.185A1.853,1.853,0,0,1,7.879,26.4a1.323,1.323,0,0,1-.166-.2,1.837,1.837,0,0,1,1.472-2.936ZM2.45,43.492V28.168H6.186a4.262,4.262,0,0,0,3,1.225H19.566A30.727,30.727,0,0,1,17.48,39.41,19.991,19.991,0,0,0,14.7,39.19a19.67,19.67,0,0,0-12.247,4.3Zm17.468-3.6a33.185,33.185,0,0,0,2.1-10.5h6.058l22.265,3.56a8.464,8.464,0,0,1,4.79,2.5,8.569,8.569,0,0,1,1.037,1.29H44.089v7.146L58.6,46.523a1.236,1.236,0,0,1,1.045,1.252l.145,4.887H33.305A19.752,19.752,0,0,0,19.917,39.895ZM33.945,55.111H59.863l.147,4.9H34.291V58.785a19.648,19.648,0,0,0-.347-3.674ZM55.111,70.738a.283.283,0,0,1,.155-.251l3.4-1.7a2.725,2.725,0,0,0,1.3-1.426h4.646l-1.874.938a2.715,2.715,0,0,0-1.51,2.442v.294H55.405a.285.285,0,0,1-.294-.294Zm8.573.294v-.294a.283.283,0,0,1,.155-.251l3.232-1.617A2.706,2.706,0,0,0,68.4,67.359h5.081v3.674h-9.8Zm0,0" transform="translate(0)"/></g></svg>